EMG
version=1
nRows=34
nColumns=17
inDegrees=no
endheader
time	EMG01_right_gast_med	EMG02_right_glut_max	EMG03_left_gast_med	EMG04_left_glut_max	EMG05_right_glut_med	EMG06_right_bic_fem	EMG07_right_rect_fem	EMG08_right_vast_lat	EMG09_right_vast_med	EMG10_right_tens_fasc_lat	EMG11_left_glut_med	EMG12_left_bic_fem	EMG13_left_rect_fem	EMG14_left_vast_lat	EMG15_left_vast_med	EMG16_left_tens_fasc_lat
      1.68000000	      4.97500181	    -84.01063538	    -20.72718239	   -226.93693542	    -26.05503464	     -3.73810101	     -7.55310059	     -3.44869113	     -4.55052710	     28.33026505	     -2.12230873	      1.08316910	      6.04024839	    -10.22372246	     53.04626846	   -127.22856903
      1.69000000	     54.96879959	    -99.36121368	    -21.01954079	   -114.42356873	     79.82339478	      1.49422526	     -4.62919569	      1.00370753	     32.95512772	     36.06454468	      3.43322968	     11.01139069	     -2.17702603	      1.11453319	     62.92805481	     -9.85926723
      1.70000000	   -101.90619659	    -96.98181152	      0.31590080	   -151.03359985	    -68.73191833	    -52.68663406	     -8.09451675	      3.12022114	     57.06700516	     38.00652313	      3.35779953	    -17.98197556	     -1.52438331	    -27.52943420	     26.82621956	    -40.07576370
      1.71000000	    116.87924194	    -76.65555573	      3.89487362	   -204.23527527	    -92.88069916	     74.48325348	     -3.33260036	      2.00549531	     60.57288361	     23.91978645	     -4.52511597	     -5.31018114	      5.20215750	      3.47414064	     -2.12757969	    -87.39317322
      1.72000000	   -111.87644958	    -33.75341034	     15.53019524	     18.14159584	    -77.66448212	     97.38049316	     -2.30594134	     13.77392960	      8.55191231	     -6.24437284	     -9.16585827	     -5.82976866	      4.64879704	     -1.92029095	    -34.03389740	    -62.07495117
      1.73000000	    -31.94099045	      1.12252080	      1.00869417	    148.48860168	     -2.49207973	    -12.69909954	      8.68853474	     42.31209564	    -87.61193085	     18.95268059	    -26.60810280	     -5.59706450	     -3.33648300	     11.19493580	    -52.83255386	   -104.03318787
      1.74000000	    -16.61753082	     23.55684090	      6.01103258	    166.69154358	     25.10173607	    -12.49662685	     -7.57925129	    -65.86904144	    -33.84460449	      5.16755629	      8.07394981	    -10.91356850	     -4.75659943	     10.95455837	    -78.03916168	    -69.65390015
      1.75000000	    -54.17145538	     36.36856461	     -0.11857986	    130.66571045	     26.60255241	    -11.01120090	     -0.25692606	     -7.47164059	    -36.57402039	     14.89894104	      3.01049924	     27.76447296	     -5.13791370	      6.52900648	    -57.88605118	    -75.24855804
      1.76000000	     -8.66965103	     41.25963593	      1.63321435	     94.70065308	     82.58166504	    -11.83541107	     -6.76048183	    -14.03346252	    -18.30253029	     15.76282692	      6.66421413	    -10.92027664	     -4.36549377	     12.40893173	    -50.54233551	     -5.34640455
      1.77000000	      4.40661573	     33.46802139	      2.95424175	     31.14496422	     19.73967743	    -11.29961967	      2.35346222	     -3.04156327	    -11.23608971	      6.27942133	     -7.91528654	     12.46416378	     -6.91332769	     21.62693977	    -28.89477158	    105.73060608
      1.78000000	      3.96273661	     31.80285645	     -1.71052361	    -34.42139053	     72.19641876	    -27.87858772	      5.88104534	     -0.90000325	     -0.96073055	      2.69988203	     -3.67505407	     -7.09426975	     -7.70810318	      8.90537453	    -15.45953083	    158.79257202
      1.79000000	     51.77840042	      5.01002407	      8.86632919	   -105.54401398	    -94.63128662	      2.08546734	      2.10318089	     -5.09904480	     -4.06899929	      1.78736806	    -10.58802986	      7.50475883	     -6.85096407	     15.24517822	     -4.98987818	    195.11692810
      1.80000000	    167.36824036	    -16.61511612	     -5.05419779	   -205.27108765	    -95.53861237	      3.96771550	     -2.25653148	      4.46017647	     -4.90311146	     -7.32611752	     -2.35889578	    -21.70335579	    -10.75359917	    -28.77687454	      0.39175296	    260.86956787
      1.81000000	    -77.77119446	    -41.28685760	     -4.09624910	   -192.97354126	    -77.56102753	      1.18472290	    -10.99985218	      7.81332970	    -30.50774384	     -1.92927659	     -8.87703514	    -10.53926468	      5.62046957	     -8.34972191	     -1.93044341	    156.51158142
      1.82000000	     -9.40960693	    -69.46977234	     -1.06402588	   -154.72279358	    -34.97784424	     -8.10443497	     -0.73286223	      7.49638128	    -37.40955734	     11.57829475	     33.45739365	     -0.54105055	     -6.75726748	     -1.75579834	     11.51242447	     63.26338577
      1.83000000	    -13.28278828	    -85.39946747	     -2.44577765	   -105.02359772	    -23.07372284	     -5.47304296	     12.20700741	     17.85594368	    -37.25547791	    -13.60579014	     15.25657272	     16.53745079	     -5.55333328	      2.35247564	      7.03052378	     49.87134171
      1.84000000	   -256.20309448	    -75.77635193	     -1.60467744	    -75.06518555	    -17.23615837	      6.72083378	    -11.53084373	      5.18271732	    -38.32979202	     -7.74920654	    -33.40096664	      0.69428253	     -6.05622864	      1.65346706	     19.39808273	      3.58424330
      1.85000000	     20.78506851	    -48.45811462	     -1.91169286	    -10.09012413	    -44.72313690	      1.69505847	      1.84787250	      1.95765567	      9.18082047	      6.78285789	     28.46610260	      5.59368563	    -13.88892269	     -5.52020359	      4.81612682	    -20.82781982
      1.86000000	    172.96011353	     -9.68761063	    -10.89081287	     21.95844078	      4.57647181	    -14.92852211	      0.53629899	     -9.38508701	     30.93576813	      1.47459817	    -17.70087242	    -49.60153961	      5.81363201	    -14.37544441	     44.20142746	    -47.28855133
      1.87000000	     20.73975754	      9.26531982	     -0.50834835	     40.78794479	     51.90253830	    -13.37872124	     -4.97621441	    -12.94638824	     42.60068893	     17.26499557	    -33.21357346	    -16.89989471	    -11.59446049	     -2.37324953	      0.97637677	    -36.32969666
      1.88000000	    -70.30815887	     25.39113617	      2.51811671	     59.05763626	    -42.90599060	     16.31698990	     -3.18825293	    -15.14956951	     50.66947174	     13.98757076	     -1.07317662	     -7.89629984	    -10.40503502	    -17.46293640	     11.21090698	    -38.69981384
      1.89000000	      0.92364311	     24.21940613	     -9.88113022	     32.06462479	    -35.41099167	    -26.09887314	     15.04097366	    -10.15326500	     13.56684208	     28.82073402	      1.47013533	    -10.98891830	      2.95201635	     10.93144035	     48.58824158	    -12.47980022
      1.90000000	   -121.72801971	     31.24994469	      5.41362190	    -41.72346115	     -6.72664881	     -7.54927778	    -10.48736763	     -1.41755748	     -1.33011019	     40.64242935	      0.34955180	     19.94603729	      6.81194782	    -12.19857407	     -5.47036934	      7.18646526
      1.91000000	    262.38504028	     41.17304993	      5.70561886	     15.97339153	     24.27920532	     -1.16549683	     45.00821686	    -10.85412025	    -16.87976456	     40.30755234	      2.68544245	    -68.25399017	    -16.20816803	     27.70021057	     69.18058014	     13.01336479
      1.92000000	   -100.94680023	     32.81418610	      2.26105261	    -13.17104149	    104.24639130	     -2.88055158	     64.51303101	     -4.59986877	    -24.19327927	     55.34695053	    -21.31781006	     -3.68332958	      1.73759031	    -37.91979218	     10.02395058	     25.20928955
      1.93000000	   -171.91563416	     23.24759674	    -15.67554951	    -42.47285461	     71.66621399	      5.74533844	    -32.69422150	    -22.36715126	    -14.95962238	    -36.97380447	     17.18317413	      4.64154291	     -6.75541306	      5.17400265	     86.66870117	     14.89581871
      1.94000000	    -27.02945709	     -2.36400723	      7.08340931	    -53.59747314	    -15.05421066	     -1.14689851	     -5.03974581	    -17.16900063	    -10.08467484	    -85.35350800	    -10.73756218	     -6.53649139	    -80.29127502	    -39.16764069	     70.20301056	    -65.71453094
      1.95000000	      4.11471891	    -27.40770149	     -4.35689259	    -40.92902374	    -87.69049835	    -16.09788704	      4.16842937	     -8.38901138	     -4.53403091	    -66.99781799	     -8.70381641	    -12.13060188	    -44.31288147	     63.34208298	     47.37379456	   -144.19982910
      1.96000000	    135.61560059	    -24.98366547	    -11.76350212	     35.41343689	    -82.43599701	      8.17350864	      1.56111777	    -19.72578430	      4.63862991	    -51.38070679	      4.17058420	     -6.64037943	    -16.47426987	    117.82173157	     45.41440582	   -148.76707458
      1.97000000	     -5.57296371	    -19.13987732	     19.61474800	     56.12932968	      6.81012774	     14.85049629	     -7.56360340	    -14.18491840	      9.47820950	     -0.16393137	     -2.64266801	    -14.54112434	      5.82405281	     18.01676178	     31.33069229	   -101.50621796
      1.98000000	     10.75007057	      3.36471224	      0.02216125	     88.96119690	     42.61632538	    -25.24020004	     -7.47572899	     -7.85788679	     -4.63523054	     -1.31037927	    -29.84473038	     14.45379353	    -26.01547623	    -23.94696808	      7.38770819	    -21.29073715
      1.99000000	      3.33255482	     25.83092499	     -9.99943829	    158.16183472	     27.29322815	    -46.47087860	     -8.44067478	     -6.13859320	    -23.28081512	     45.64794922	     -3.70374346	     22.37691689	     -2.18852806	     65.90811920	     27.81650543	     51.38736725
      2.00000000	     41.95858002	     35.81323242	     13.40185642	     81.13880920	    -17.24306679	     19.17046356	      8.64658356	     10.43625259	    -27.16736984	    228.63168335	    -90.05747223	     14.23311043	     25.96138763	    -26.24971390	     38.20858765	     60.41783142
      2.01000000	     45.35058975	     48.62150192	     21.13079071	    132.96655273	    311.16510010	     -7.94576693	      9.45381165	     12.95826054	    -41.78365707	     80.38898468	     40.26409149	     14.41696644	    -32.42160797	    -26.30132675	    -39.11170959	     84.23390961
